<?xml version="1.0" encoding="UTF-8" standalone="no"?>
<!DOCTYPE svg PUBLIC "-//W3C//DTD SVG 1.1//EN"
 "http://www.w3.org/Graphics/SVG/1.1/DTD/svg11.dtd">
<!-- Generated by graphviz version 2.40.1 (20161225.0304)
 -->
<!-- Title: dependencies Pages: 1 -->
<svg width="628pt" height="284pt"
 viewBox="0.00 0.00 628.00 284.00" xmlns="http://www.w3.org/2000/svg" xmlns:xlink="http://www.w3.org/1999/xlink">
<g id="graph0" class="graph" transform="scale(1 1) rotate(0) translate(4 280)">
<title>dependencies</title>
<polygon fill="#ffffff" stroke="transparent" points="-4,4 -4,-280 624,-280 624,4 -4,4"/>
<text text-anchor="start" x="289.0091" y="-42.4" font-family="sans-serif" font-weight="bold" font-size="14.00" fill="#000000">Legend</text>
<polygon fill="#ffffb3" stroke="transparent" points="76,-10 76,-30 96,-30 96,-10 76,-10"/>
<text text-anchor="start" x="99.629" y="-15.4" font-family="sans-serif" font-size="14.00" fill="#000000"> &#160;Declarations</text>
<polygon fill="#8dd3c7" stroke="transparent" points="189,-10 189,-30 209,-30 209,-10 189,-10"/>
<text text-anchor="start" x="212.7251" y="-15.4" font-family="sans-serif" font-size="14.00" fill="#000000"> &#160;Module</text>
<polygon fill="#80b1d3" stroke="transparent" points="275,-10 275,-30 295,-30 295,-10 275,-10"/>
<text text-anchor="start" x="298.7812" y="-15.4" font-family="sans-serif" font-size="14.00" fill="#000000"> &#160;Bootstrap</text>
<polygon fill="#fdb462" stroke="transparent" points="372,-10 372,-30 392,-30 392,-10 372,-10"/>
<text text-anchor="start" x="395.6732" y="-15.4" font-family="sans-serif" font-size="14.00" fill="#000000"> &#160;Providers</text>
<polygon fill="#fb8072" stroke="transparent" points="468,-10 468,-30 488,-30 488,-10 468,-10"/>
<text text-anchor="start" x="491.7258" y="-15.4" font-family="sans-serif" font-size="14.00" fill="#000000"> &#160;Exports</text>
<g id="clust1" class="cluster">
<title>cluster_SharedModule</title>
<polygon fill="none" stroke="#000000" stroke-dasharray="1,5" points="8,-70 8,-268 612,-268 612,-70 8,-70"/>
</g>
<g id="clust2" class="cluster">
<title>cluster_SharedModule_declarations</title>
<polygon fill="none" stroke="#000000" points="24,-78 24,-130 598,-130 598,-78 24,-78"/>
</g>
<g id="clust8" class="cluster">
<title>cluster_SharedModule_exports</title>
<polygon fill="none" stroke="#000000" points="16,-208 16,-260 604,-260 604,-208 16,-208"/>
</g>
<!-- BreadcrumbComponent -->
<g id="node1" class="node">
<title>BreadcrumbComponent</title>
<polygon fill="#ffffb3" stroke="#000000" points="590.0253,-122 439.9747,-122 439.9747,-86 590.0253,-86 590.0253,-122"/>
<text text-anchor="middle" x="515" y="-99.8" font-family="Times,serif" font-size="14.00" fill="#000000">BreadcrumbComponent</text>
</g>
<!-- SharedModule -->
<g id="node5" class="node">
<title>SharedModule</title>
<polygon fill="#8dd3c7" stroke="#000000" points="276.4231,-187 273.4231,-191 252.4231,-191 249.4231,-187 177.5769,-187 177.5769,-151 276.4231,-151 276.4231,-187"/>
<text text-anchor="middle" x="227" y="-164.8" font-family="Times,serif" font-size="14.00" fill="#000000">SharedModule</text>
</g>
<!-- BreadcrumbComponent&#45;&gt;SharedModule -->
<g id="edge1" class="edge">
<title>BreadcrumbComponent&#45;&gt;SharedModule</title>
<path fill="none" stroke="#000000" d="M540.8374,-122.2667C540.8374,-140.5552 540.8374,-166 540.8374,-166 540.8374,-166 286.3823,-166 286.3823,-166"/>
<polygon fill="#000000" stroke="#000000" points="286.3824,-162.5001 276.3823,-166 286.3823,-169.5001 286.3824,-162.5001"/>
</g>
<!-- FooterComponent -->
<g id="node2" class="node">
<title>FooterComponent</title>
<polygon fill="#ffffb3" stroke="#000000" points="421.8809,-122 304.1191,-122 304.1191,-86 421.8809,-86 421.8809,-122"/>
<text text-anchor="middle" x="363" y="-99.8" font-family="Times,serif" font-size="14.00" fill="#000000">FooterComponent</text>
</g>
<!-- FooterComponent&#45;&gt;SharedModule -->
<g id="edge2" class="edge">
<title>FooterComponent&#45;&gt;SharedModule</title>
<path fill="none" stroke="#000000" d="M382.6468,-122.0091C382.6468,-138.0494 382.6468,-159 382.6468,-159 382.6468,-159 286.2476,-159 286.2476,-159"/>
<polygon fill="#000000" stroke="#000000" points="286.2477,-155.5001 276.2476,-159 286.2476,-162.5001 286.2477,-155.5001"/>
</g>
<!-- HeaderComponent -->
<g id="node3" class="node">
<title>HeaderComponent</title>
<polygon fill="#ffffb3" stroke="#000000" points="285.7437,-122 164.2563,-122 164.2563,-86 285.7437,-86 285.7437,-122"/>
<text text-anchor="middle" x="225" y="-99.8" font-family="Times,serif" font-size="14.00" fill="#000000">HeaderComponent</text>
</g>
<!-- HeaderComponent&#45;&gt;SharedModule -->
<g id="edge3" class="edge">
<title>HeaderComponent&#45;&gt;SharedModule</title>
<path fill="none" stroke="#000000" d="M227,-122.1061C227,-122.1061 227,-140.991 227,-140.991"/>
<polygon fill="#000000" stroke="#000000" points="223.5001,-140.9909 227,-150.991 230.5001,-140.991 223.5001,-140.9909"/>
</g>
<!-- MenuComponent -->
<g id="node4" class="node">
<title>MenuComponent</title>
<polygon fill="#ffffb3" stroke="#000000" points="145.9916,-122 32.0084,-122 32.0084,-86 145.9916,-86 145.9916,-122"/>
<text text-anchor="middle" x="89" y="-99.8" font-family="Times,serif" font-size="14.00" fill="#000000">MenuComponent</text>
</g>
<!-- MenuComponent&#45;&gt;SharedModule -->
<g id="edge4" class="edge">
<title>MenuComponent&#45;&gt;SharedModule</title>
<path fill="none" stroke="#000000" d="M105.1653,-122.0225C105.1653,-139.3734 105.1653,-163 105.1653,-163 105.1653,-163 167.4451,-163 167.4451,-163"/>
<polygon fill="#000000" stroke="#000000" points="167.4452,-166.5001 177.4451,-163 167.4451,-159.5001 167.4452,-166.5001"/>
</g>
<!-- BreadcrumbComponent  -->
<g id="node6" class="node">
<title>BreadcrumbComponent </title>
<polygon fill="#fb8072" stroke="#000000" points="596.0246,-252 441.9754,-252 441.9754,-216 596.0246,-216 596.0246,-252"/>
<text text-anchor="middle" x="519" y="-229.8" font-family="Times,serif" font-size="14.00" fill="#000000">BreadcrumbComponent </text>
</g>
<!-- SharedModule&#45;&gt;BreadcrumbComponent  -->
<g id="edge5" class="edge">
<title>SharedModule&#45;&gt;BreadcrumbComponent </title>
<path fill="none" stroke="#000000" stroke-dasharray="5,2" d="M276.4238,-173C352.9544,-173 491.4126,-173 491.4126,-173 491.4126,-173 491.4126,-205.698 491.4126,-205.698"/>
<polygon fill="#000000" stroke="#000000" points="487.9127,-205.698 491.4126,-215.698 494.9127,-205.698 487.9127,-205.698"/>
</g>
<!-- FooterComponent  -->
<g id="node7" class="node">
<title>FooterComponent </title>
<polygon fill="#fb8072" stroke="#000000" points="423.8814,-252 302.1186,-252 302.1186,-216 423.8814,-216 423.8814,-252"/>
<text text-anchor="middle" x="363" y="-229.8" font-family="Times,serif" font-size="14.00" fill="#000000">FooterComponent </text>
</g>
<!-- SharedModule&#45;&gt;FooterComponent  -->
<g id="edge6" class="edge">
<title>SharedModule&#45;&gt;FooterComponent </title>
<path fill="none" stroke="#000000" stroke-dasharray="5,2" d="M276.3442,-180C308.0563,-180 343.3532,-180 343.3532,-180 343.3532,-180 343.3532,-205.7181 343.3532,-205.7181"/>
<polygon fill="#000000" stroke="#000000" points="339.8533,-205.718 343.3532,-215.7181 346.8533,-205.7181 339.8533,-205.718"/>
</g>
<!-- HeaderComponent  -->
<g id="node8" class="node">
<title>HeaderComponent </title>
<polygon fill="#fb8072" stroke="#000000" points="284.7436,-252 159.2564,-252 159.2564,-216 284.7436,-216 284.7436,-252"/>
<text text-anchor="middle" x="222" y="-229.8" font-family="Times,serif" font-size="14.00" fill="#000000">HeaderComponent </text>
</g>
<!-- SharedModule&#45;&gt;HeaderComponent  -->
<g id="edge7" class="edge">
<title>SharedModule&#45;&gt;HeaderComponent </title>
<path fill="none" stroke="#000000" stroke-dasharray="5,2" d="M227,-187.1061C227,-187.1061 227,-205.991 227,-205.991"/>
<polygon fill="#000000" stroke="#000000" points="223.5001,-205.9909 227,-215.991 230.5001,-205.991 223.5001,-205.9909"/>
</g>
<!-- MenuComponent  -->
<g id="node9" class="node">
<title>MenuComponent </title>
<polygon fill="#fb8072" stroke="#000000" points="141.9926,-252 24.0074,-252 24.0074,-216 141.9926,-216 141.9926,-252"/>
<text text-anchor="middle" x="83" y="-229.8" font-family="Times,serif" font-size="14.00" fill="#000000">MenuComponent </text>
</g>
<!-- SharedModule&#45;&gt;MenuComponent  -->
<g id="edge8" class="edge">
<title>SharedModule&#45;&gt;MenuComponent </title>
<path fill="none" stroke="#000000" stroke-dasharray="5,2" d="M177.7448,-175C131.2416,-175 68.5847,-175 68.5847,-175 68.5847,-175 68.5847,-205.9775 68.5847,-205.9775"/>
<polygon fill="#000000" stroke="#000000" points="65.0848,-205.9774 68.5847,-215.9775 72.0848,-205.9775 65.0848,-205.9774"/>
</g>
</g>
</svg>
