<?xml version="1.0" encoding="UTF-8" standalone="no"?>
<!DOCTYPE svg PUBLIC "-//W3C//DTD SVG 1.1//EN"
 "http://www.w3.org/Graphics/SVG/1.1/DTD/svg11.dtd">
<!-- Generated by graphviz version 2.40.1 (20161225.0304)
 -->
<!-- Title: dependencies Pages: 1 -->
<svg width="4524pt" height="290pt"
 viewBox="0.00 0.00 4524.00 290.00" xmlns="http://www.w3.org/2000/svg" xmlns:xlink="http://www.w3.org/1999/xlink">
<g id="graph0" class="graph" transform="scale(1 1) rotate(0) translate(4 286)">
<title>dependencies</title>
<polygon fill="#ffffff" stroke="transparent" points="-4,4 -4,-286 4520,-286 4520,4 -4,4"/>
<text text-anchor="start" x="2237.0091" y="-42.4" font-family="sans-serif" font-weight="bold" font-size="14.00" fill="#000000">Legend</text>
<polygon fill="#ffffb3" stroke="transparent" points="2024,-10 2024,-30 2044,-30 2044,-10 2024,-10"/>
<text text-anchor="start" x="2047.629" y="-15.4" font-family="sans-serif" font-size="14.00" fill="#000000"> &#160;Declarations</text>
<polygon fill="#8dd3c7" stroke="transparent" points="2137,-10 2137,-30 2157,-30 2157,-10 2137,-10"/>
<text text-anchor="start" x="2160.7251" y="-15.4" font-family="sans-serif" font-size="14.00" fill="#000000"> &#160;Module</text>
<polygon fill="#80b1d3" stroke="transparent" points="2223,-10 2223,-30 2243,-30 2243,-10 2223,-10"/>
<text text-anchor="start" x="2246.7812" y="-15.4" font-family="sans-serif" font-size="14.00" fill="#000000"> &#160;Bootstrap</text>
<polygon fill="#fdb462" stroke="transparent" points="2320,-10 2320,-30 2340,-30 2340,-10 2320,-10"/>
<text text-anchor="start" x="2343.6732" y="-15.4" font-family="sans-serif" font-size="14.00" fill="#000000"> &#160;Providers</text>
<polygon fill="#fb8072" stroke="transparent" points="2416,-10 2416,-30 2436,-30 2436,-10 2416,-10"/>
<text text-anchor="start" x="2439.7258" y="-15.4" font-family="sans-serif" font-size="14.00" fill="#000000"> &#160;Exports</text>
<g id="clust1" class="cluster">
<title>cluster_AppModule</title>
<polygon fill="none" stroke="#000000" stroke-dasharray="1,5" points="8,-70 8,-274 3314,-274 3314,-70 8,-70"/>
</g>
<g id="clust2" class="cluster">
<title>cluster_AppModule_declarations</title>
<polygon fill="none" stroke="#000000" points="16,-78 16,-130 3037,-130 3037,-78 16,-78"/>
</g>
<g id="clust20" class="cluster">
<title>cluster_AppModule_imports</title>
<polygon fill="none" stroke="#000000" points="3045,-78 3045,-130 3306,-130 3306,-78 3045,-78"/>
</g>
<g id="clust22" class="cluster">
<title>cluster_AppModule_bootstrap</title>
<polygon fill="none" stroke="#000000" points="1900,-214 1900,-266 2024,-266 2024,-214 1900,-214"/>
</g>
<g id="clust30" class="cluster">
<title>cluster_SharedModule</title>
<polygon fill="none" stroke="#000000" stroke-dasharray="1,5" points="3322,-138 3322,-206 4508,-206 4508,-138 3322,-138"/>
</g>
<g id="clust31" class="cluster">
<title>cluster_SharedModule_declarations</title>
<polygon fill="none" stroke="#000000" points="3926,-146 3926,-198 4500,-198 4500,-146 3926,-146"/>
</g>
<g id="clust37" class="cluster">
<title>cluster_SharedModule_exports</title>
<polygon fill="none" stroke="#000000" points="3330,-146 3330,-198 3918,-198 3918,-146 3330,-146"/>
</g>
<!-- AppComponent -->
<g id="node1" class="node">
<title>AppComponent</title>
<polygon fill="#ffffb3" stroke="#000000" points="3028.9399,-122 2923.0601,-122 2923.0601,-86 3028.9399,-86 3028.9399,-122"/>
<text text-anchor="middle" x="2976" y="-99.8" font-family="Times,serif" font-size="14.00" fill="#000000">AppComponent</text>
</g>
<!-- AppModule -->
<g id="node18" class="node">
<title>AppModule</title>
<polygon fill="#8dd3c7" stroke="#000000" points="2003.6571,-190 2000.6571,-194 1979.6571,-194 1976.6571,-190 1920.3429,-190 1920.3429,-154 2003.6571,-154 2003.6571,-190"/>
<text text-anchor="middle" x="1962" y="-167.8" font-family="Times,serif" font-size="14.00" fill="#000000">AppModule</text>
</g>
<!-- AppComponent&#45;&gt;AppModule -->
<g id="edge1" class="edge">
<title>AppComponent&#45;&gt;AppModule</title>
<path fill="none" stroke="#000000" d="M2976,-122.0449C2976,-143.6623 2976,-177 2976,-177 2976,-177 2013.9593,-177 2013.9593,-177"/>
<polygon fill="#000000" stroke="#000000" points="2013.9594,-173.5001 2003.9593,-177 2013.9593,-180.5001 2013.9594,-173.5001"/>
</g>
<!-- CircuitsComponent -->
<g id="node2" class="node">
<title>CircuitsComponent</title>
<polygon fill="#ffffb3" stroke="#000000" points="2904.6611,-122 2779.3389,-122 2779.3389,-86 2904.6611,-86 2904.6611,-122"/>
<text text-anchor="middle" x="2842" y="-99.8" font-family="Times,serif" font-size="14.00" fill="#000000">CircuitsComponent</text>
</g>
<!-- CircuitsComponent&#45;&gt;AppModule -->
<g id="edge2" class="edge">
<title>CircuitsComponent&#45;&gt;AppModule</title>
<path fill="none" stroke="#000000" d="M2842,-122.0267C2842,-142.7672 2842,-174 2842,-174 2842,-174 2013.8522,-174 2013.8522,-174"/>
<polygon fill="#000000" stroke="#000000" points="2013.8523,-170.5001 2003.8522,-174 2013.8522,-177.5001 2013.8523,-170.5001"/>
</g>
<!-- CitiesComponent -->
<g id="node3" class="node">
<title>CitiesComponent</title>
<polygon fill="#ffffb3" stroke="#000000" points="2761,-122 2647,-122 2647,-86 2761,-86 2761,-122"/>
<text text-anchor="middle" x="2704" y="-99.8" font-family="Times,serif" font-size="14.00" fill="#000000">CitiesComponent</text>
</g>
<!-- CitiesComponent&#45;&gt;AppModule -->
<g id="edge3" class="edge">
<title>CitiesComponent&#45;&gt;AppModule</title>
<path fill="none" stroke="#000000" d="M2704,-122.308C2704,-142.1455 2704,-171 2704,-171 2704,-171 2013.7507,-171 2013.7507,-171"/>
<polygon fill="#000000" stroke="#000000" points="2013.7508,-167.5001 2003.7507,-171 2013.7507,-174.5001 2013.7508,-167.5001"/>
</g>
<!-- ContractsComponent -->
<g id="node4" class="node">
<title>ContractsComponent</title>
<polygon fill="#ffffb3" stroke="#000000" points="2629.4846,-122 2494.5154,-122 2494.5154,-86 2629.4846,-86 2629.4846,-122"/>
<text text-anchor="middle" x="2562" y="-99.8" font-family="Times,serif" font-size="14.00" fill="#000000">ContractsComponent</text>
</g>
<!-- ContractsComponent&#45;&gt;AppModule -->
<g id="edge4" class="edge">
<title>ContractsComponent&#45;&gt;AppModule</title>
<path fill="none" stroke="#000000" d="M2562,-122.1686C2562,-141.0898 2562,-168 2562,-168 2562,-168 2013.7145,-168 2013.7145,-168"/>
<polygon fill="#000000" stroke="#000000" points="2013.7145,-164.5001 2003.7145,-168 2013.7144,-171.5001 2013.7145,-164.5001"/>
</g>
<!-- EnterprisesComponent -->
<g id="node5" class="node">
<title>EnterprisesComponent</title>
<polygon fill="#ffffb3" stroke="#000000" points="2476.3061,-122 2331.6939,-122 2331.6939,-86 2476.3061,-86 2476.3061,-122"/>
<text text-anchor="middle" x="2404" y="-99.8" font-family="Times,serif" font-size="14.00" fill="#000000">EnterprisesComponent</text>
</g>
<!-- EnterprisesComponent&#45;&gt;AppModule -->
<g id="edge5" class="edge">
<title>EnterprisesComponent&#45;&gt;AppModule</title>
<path fill="none" stroke="#000000" d="M2404,-122.002C2404,-139.6754 2404,-164 2404,-164 2404,-164 2013.9808,-164 2013.9808,-164"/>
<polygon fill="#000000" stroke="#000000" points="2013.9808,-160.5001 2003.9808,-164 2013.9807,-167.5001 2013.9808,-160.5001"/>
</g>
<!-- LoginComponent -->
<g id="node6" class="node">
<title>LoginComponent</title>
<polygon fill="#ffffb3" stroke="#000000" points="2313.2758,-122 2198.7242,-122 2198.7242,-86 2313.2758,-86 2313.2758,-122"/>
<text text-anchor="middle" x="2256" y="-99.8" font-family="Times,serif" font-size="14.00" fill="#000000">LoginComponent</text>
</g>
<!-- LoginComponent&#45;&gt;AppModule -->
<g id="edge6" class="edge">
<title>LoginComponent&#45;&gt;AppModule</title>
<path fill="none" stroke="#000000" d="M2256,-122.0352C2256,-138.7344 2256,-161 2256,-161 2256,-161 2013.8108,-161 2013.8108,-161"/>
<polygon fill="#000000" stroke="#000000" points="2013.8108,-157.5001 2003.8108,-161 2013.8108,-164.5001 2013.8108,-157.5001"/>
</g>
<!-- NotFoundComponent -->
<g id="node7" class="node">
<title>NotFoundComponent</title>
<polygon fill="#ffffb3" stroke="#000000" points="2181.1122,-122 2042.8878,-122 2042.8878,-86 2181.1122,-86 2181.1122,-122"/>
<text text-anchor="middle" x="2112" y="-99.8" font-family="Times,serif" font-size="14.00" fill="#000000">NotFoundComponent</text>
</g>
<!-- NotFoundComponent&#45;&gt;AppModule -->
<g id="edge7" class="edge">
<title>NotFoundComponent&#45;&gt;AppModule</title>
<path fill="none" stroke="#000000" d="M2112,-122.2819C2112,-137.9478 2112,-158 2112,-158 2112,-158 2013.7834,-158 2013.7834,-158"/>
<polygon fill="#000000" stroke="#000000" points="2013.7834,-154.5001 2003.7834,-158 2013.7833,-161.5001 2013.7834,-154.5001"/>
</g>
<!-- ProjectsComponent -->
<g id="node8" class="node">
<title>ProjectsComponent</title>
<polygon fill="#ffffb3" stroke="#000000" points="2025.4313,-122 1898.5687,-122 1898.5687,-86 2025.4313,-86 2025.4313,-122"/>
<text text-anchor="middle" x="1962" y="-99.8" font-family="Times,serif" font-size="14.00" fill="#000000">ProjectsComponent</text>
</g>
<!-- ProjectsComponent&#45;&gt;AppModule -->
<g id="edge8" class="edge">
<title>ProjectsComponent&#45;&gt;AppModule</title>
<path fill="none" stroke="#000000" d="M1962,-122.2228C1962,-122.2228 1962,-143.7269 1962,-143.7269"/>
<polygon fill="#000000" stroke="#000000" points="1958.5001,-143.7269 1962,-153.7269 1965.5001,-143.727 1958.5001,-143.7269"/>
</g>
<!-- RegisterCircuitModalComponent -->
<g id="node9" class="node">
<title>RegisterCircuitModalComponent</title>
<polygon fill="#ffffb3" stroke="#000000" points="1880.9184,-122 1677.0816,-122 1677.0816,-86 1880.9184,-86 1880.9184,-122"/>
<text text-anchor="middle" x="1779" y="-99.8" font-family="Times,serif" font-size="14.00" fill="#000000">RegisterCircuitModalComponent</text>
</g>
<!-- RegisterCircuitModalComponent&#45;&gt;AppModule -->
<g id="edge9" class="edge">
<title>RegisterCircuitModalComponent&#45;&gt;AppModule</title>
<path fill="none" stroke="#000000" d="M1779,-122.2819C1779,-137.9478 1779,-158 1779,-158 1779,-158 1910.0161,-158 1910.0161,-158"/>
<polygon fill="#000000" stroke="#000000" points="1910.0161,-161.5001 1920.0161,-158 1910.0161,-154.5001 1910.0161,-161.5001"/>
</g>
<!-- RegisterCitiesModalComponent -->
<g id="node10" class="node">
<title>RegisterCitiesModalComponent</title>
<polygon fill="#ffffb3" stroke="#000000" points="1659.7021,-122 1462.2979,-122 1462.2979,-86 1659.7021,-86 1659.7021,-122"/>
<text text-anchor="middle" x="1561" y="-99.8" font-family="Times,serif" font-size="14.00" fill="#000000">RegisterCitiesModalComponent</text>
</g>
<!-- RegisterCitiesModalComponent&#45;&gt;AppModule -->
<g id="edge10" class="edge">
<title>RegisterCitiesModalComponent&#45;&gt;AppModule</title>
<path fill="none" stroke="#000000" d="M1561,-122.0336C1561,-139.0597 1561,-162 1561,-162 1561,-162 1910.2208,-162 1910.2208,-162"/>
<polygon fill="#000000" stroke="#000000" points="1910.2208,-165.5001 1920.2208,-162 1910.2207,-158.5001 1910.2208,-165.5001"/>
</g>
<!-- RegisterContractModalComponent -->
<g id="node11" class="node">
<title>RegisterContractModalComponent</title>
<polygon fill="#ffffb3" stroke="#000000" points="1444.2422,-122 1231.7578,-122 1231.7578,-86 1444.2422,-86 1444.2422,-122"/>
<text text-anchor="middle" x="1338" y="-99.8" font-family="Times,serif" font-size="14.00" fill="#000000">RegisterContractModalComponent</text>
</g>
<!-- RegisterContractModalComponent&#45;&gt;AppModule -->
<g id="edge11" class="edge">
<title>RegisterContractModalComponent&#45;&gt;AppModule</title>
<path fill="none" stroke="#000000" d="M1338,-122.302C1338,-140.2699 1338,-165 1338,-165 1338,-165 1910.0887,-165 1910.0887,-165"/>
<polygon fill="#000000" stroke="#000000" points="1910.0887,-168.5001 1920.0887,-165 1910.0886,-161.5001 1910.0887,-168.5001"/>
</g>
<!-- RegisterEnterpriseModalComponent -->
<g id="node12" class="node">
<title>RegisterEnterpriseModalComponent</title>
<polygon fill="#ffffb3" stroke="#000000" points="1214.0632,-122 991.9368,-122 991.9368,-86 1214.0632,-86 1214.0632,-122"/>
<text text-anchor="middle" x="1103" y="-99.8" font-family="Times,serif" font-size="14.00" fill="#000000">RegisterEnterpriseModalComponent</text>
</g>
<!-- RegisterEnterpriseModalComponent&#45;&gt;AppModule -->
<g id="edge12" class="edge">
<title>RegisterEnterpriseModalComponent&#45;&gt;AppModule</title>
<path fill="none" stroke="#000000" d="M1103,-122.1061C1103,-141.3391 1103,-169 1103,-169 1103,-169 1910.2783,-169 1910.2783,-169"/>
<polygon fill="#000000" stroke="#000000" points="1910.2784,-172.5001 1920.2783,-169 1910.2783,-165.5001 1910.2784,-172.5001"/>
</g>
<!-- RegisterProjectModalComponent -->
<g id="node13" class="node">
<title>RegisterProjectModalComponent</title>
<polygon fill="#ffffb3" stroke="#000000" points="974.1881,-122 769.8119,-122 769.8119,-86 974.1881,-86 974.1881,-122"/>
<text text-anchor="middle" x="872" y="-99.8" font-family="Times,serif" font-size="14.00" fill="#000000">RegisterProjectModalComponent</text>
</g>
<!-- RegisterProjectModalComponent&#45;&gt;AppModule -->
<g id="edge13" class="edge">
<title>RegisterProjectModalComponent&#45;&gt;AppModule</title>
<path fill="none" stroke="#000000" d="M872,-122.2228C872,-142.3652 872,-172 872,-172 872,-172 1910.2707,-172 1910.2707,-172"/>
<polygon fill="#000000" stroke="#000000" points="1910.2708,-175.5001 1920.2707,-172 1910.2707,-168.5001 1910.2708,-175.5001"/>
</g>
<!-- RegisterSubstationModalComponent -->
<g id="node14" class="node">
<title>RegisterSubstationModalComponent</title>
<polygon fill="#ffffb3" stroke="#000000" points="751.6483,-122 528.3517,-122 528.3517,-86 751.6483,-86 751.6483,-122"/>
<text text-anchor="middle" x="640" y="-99.8" font-family="Times,serif" font-size="14.00" fill="#000000">RegisterSubstationModalComponent</text>
</g>
<!-- RegisterSubstationModalComponent&#45;&gt;AppModule -->
<g id="edge14" class="edge">
<title>RegisterSubstationModalComponent&#45;&gt;AppModule</title>
<path fill="none" stroke="#000000" d="M640,-122.1686C640,-143.498 640,-176 640,-176 640,-176 1910.2517,-176 1910.2517,-176"/>
<polygon fill="#000000" stroke="#000000" points="1910.2518,-179.5001 1920.2517,-176 1910.2517,-172.5001 1910.2518,-179.5001"/>
</g>
<!-- RegisterUserModalComponent -->
<g id="node15" class="node">
<title>RegisterUserModalComponent</title>
<polygon fill="#ffffb3" stroke="#000000" points="510.4608,-122 319.5392,-122 319.5392,-86 510.4608,-86 510.4608,-122"/>
<text text-anchor="middle" x="415" y="-99.8" font-family="Times,serif" font-size="14.00" fill="#000000">RegisterUserModalComponent</text>
</g>
<!-- RegisterUserModalComponent&#45;&gt;AppModule -->
<g id="edge15" class="edge">
<title>RegisterUserModalComponent&#45;&gt;AppModule</title>
<path fill="none" stroke="#000000" d="M415,-122.0109C415,-144.4852 415,-180 415,-180 415,-180 1910.2212,-180 1910.2212,-180"/>
<polygon fill="#000000" stroke="#000000" points="1910.2213,-183.5001 1920.2212,-180 1910.2212,-176.5001 1910.2213,-183.5001"/>
</g>
<!-- SubstationsComponent -->
<g id="node16" class="node">
<title>SubstationsComponent</title>
<polygon fill="#ffffb3" stroke="#000000" points="301.8906,-122 156.1094,-122 156.1094,-86 301.8906,-86 301.8906,-122"/>
<text text-anchor="middle" x="229" y="-99.8" font-family="Times,serif" font-size="14.00" fill="#000000">SubstationsComponent</text>
</g>
<!-- SubstationsComponent&#45;&gt;AppModule -->
<g id="edge16" class="edge">
<title>SubstationsComponent&#45;&gt;AppModule</title>
<path fill="none" stroke="#000000" d="M229,-122.3228C229,-145.6602 229,-183 229,-183 229,-183 1910.0202,-183 1910.0202,-183"/>
<polygon fill="#000000" stroke="#000000" points="1910.0203,-186.5001 1920.0202,-183 1910.0202,-179.5001 1910.0203,-186.5001"/>
</g>
<!-- UsersComponent -->
<g id="node17" class="node">
<title>UsersComponent</title>
<polygon fill="#ffffb3" stroke="#000000" points="137.7036,-122 24.2964,-122 24.2964,-86 137.7036,-86 137.7036,-122"/>
<text text-anchor="middle" x="81" y="-99.8" font-family="Times,serif" font-size="14.00" fill="#000000">UsersComponent</text>
</g>
<!-- UsersComponent&#45;&gt;AppModule -->
<g id="edge17" class="edge">
<title>UsersComponent&#45;&gt;AppModule</title>
<path fill="none" stroke="#000000" d="M81,-122.0098C81,-146.4207 81,-187 81,-187 81,-187 1910.0753,-187 1910.0753,-187"/>
<polygon fill="#000000" stroke="#000000" points="1910.0754,-190.5001 1920.0753,-187 1910.0753,-183.5001 1910.0754,-190.5001"/>
</g>
<!-- AppComponent  -->
<g id="node21" class="node">
<title>AppComponent </title>
<polygon fill="#80b1d3" stroke="#000000" points="2016.439,-258 1907.561,-258 1907.561,-222 2016.439,-222 2016.439,-258"/>
<text text-anchor="middle" x="1962" y="-235.8" font-family="Times,serif" font-size="14.00" fill="#000000">AppComponent </text>
</g>
<!-- AppModule&#45;&gt;AppComponent  -->
<g id="edge20" class="edge">
<title>AppModule&#45;&gt;AppComponent </title>
<path fill="none" stroke="#000000" stroke-dasharray="1,5" d="M1962,-190.2228C1962,-190.2228 1962,-211.7269 1962,-211.7269"/>
<polygon fill="#000000" stroke="#000000" points="1958.5001,-211.7269 1962,-221.7269 1965.5001,-211.727 1958.5001,-211.7269"/>
</g>
<!-- AppRoutingModule -->
<g id="node19" class="node">
<title>AppRoutingModule</title>
<polygon fill="#8dd3c7" stroke="#000000" points="3181.2744,-122 3178.2744,-126 3157.2744,-126 3154.2744,-122 3052.7256,-122 3052.7256,-86 3181.2744,-86 3181.2744,-122"/>
<text text-anchor="middle" x="3117" y="-99.8" font-family="Times,serif" font-size="14.00" fill="#000000">AppRoutingModule</text>
</g>
<!-- AppRoutingModule&#45;&gt;AppModule -->
<g id="edge18" class="edge">
<title>AppRoutingModule&#45;&gt;AppModule</title>
<path fill="none" stroke="#000000" d="M3117,-122.2479C3117,-145.0179 3117,-181 3117,-181 3117,-181 2013.7894,-181 2013.7894,-181"/>
<polygon fill="#000000" stroke="#000000" points="2013.7894,-177.5001 2003.7894,-181 2013.7894,-184.5001 2013.7894,-177.5001"/>
</g>
<!-- SharedModule -->
<g id="node20" class="node">
<title>SharedModule</title>
<polygon fill="#8dd3c7" stroke="#000000" points="3298.4231,-122 3295.4231,-126 3274.4231,-126 3271.4231,-122 3199.5769,-122 3199.5769,-86 3298.4231,-86 3298.4231,-122"/>
<text text-anchor="middle" x="3249" y="-99.8" font-family="Times,serif" font-size="14.00" fill="#000000">SharedModule</text>
</g>
<!-- SharedModule&#45;&gt;AppModule -->
<g id="edge19" class="edge">
<title>SharedModule&#45;&gt;AppModule</title>
<path fill="none" stroke="#000000" d="M3232.5963,-122.1532C3232.5963,-145.7566 3232.5963,-184 3232.5963,-184 3232.5963,-184 2013.9131,-184 2013.9131,-184"/>
<polygon fill="#000000" stroke="#000000" points="2013.9131,-180.5001 2003.9131,-184 2013.9131,-187.5001 2013.9131,-180.5001"/>
</g>
<!-- BreadcrumbComponent  -->
<g id="node26" class="node">
<title>BreadcrumbComponent </title>
<polygon fill="#fb8072" stroke="#000000" points="3910.0246,-190 3755.9754,-190 3755.9754,-154 3910.0246,-154 3910.0246,-190"/>
<text text-anchor="middle" x="3833" y="-167.8" font-family="Times,serif" font-size="14.00" fill="#000000">BreadcrumbComponent </text>
</g>
<!-- SharedModule&#45;&gt;BreadcrumbComponent  -->
<g id="edge25" class="edge">
<title>SharedModule&#45;&gt;BreadcrumbComponent </title>
<path fill="none" stroke="#000000" stroke-dasharray="5,2" d="M3298.2882,-109C3439.0828,-109 3833,-109 3833,-109 3833,-109 3833,-143.7778 3833,-143.7778"/>
<polygon fill="#000000" stroke="#000000" points="3829.5001,-143.7778 3833,-153.7778 3836.5001,-143.7778 3829.5001,-143.7778"/>
</g>
<!-- FooterComponent  -->
<g id="node27" class="node">
<title>FooterComponent </title>
<polygon fill="#fb8072" stroke="#000000" points="3737.8814,-190 3616.1186,-190 3616.1186,-154 3737.8814,-154 3737.8814,-190"/>
<text text-anchor="middle" x="3677" y="-167.8" font-family="Times,serif" font-size="14.00" fill="#000000">FooterComponent </text>
</g>
<!-- SharedModule&#45;&gt;FooterComponent  -->
<g id="edge26" class="edge">
<title>SharedModule&#45;&gt;FooterComponent </title>
<path fill="none" stroke="#000000" stroke-dasharray="5,2" d="M3298.5152,-113C3411.178,-113 3677,-113 3677,-113 3677,-113 3677,-143.9775 3677,-143.9775"/>
<polygon fill="#000000" stroke="#000000" points="3673.5001,-143.9774 3677,-153.9775 3680.5001,-143.9775 3673.5001,-143.9774"/>
</g>
<!-- HeaderComponent  -->
<g id="node28" class="node">
<title>HeaderComponent </title>
<polygon fill="#fb8072" stroke="#000000" points="3598.7436,-190 3473.2564,-190 3473.2564,-154 3598.7436,-154 3598.7436,-190"/>
<text text-anchor="middle" x="3536" y="-167.8" font-family="Times,serif" font-size="14.00" fill="#000000">HeaderComponent </text>
</g>
<!-- SharedModule&#45;&gt;HeaderComponent  -->
<g id="edge27" class="edge">
<title>SharedModule&#45;&gt;HeaderComponent </title>
<path fill="none" stroke="#000000" stroke-dasharray="5,2" d="M3298.3371,-118C3380.3946,-118 3536,-118 3536,-118 3536,-118 3536,-143.7181 3536,-143.7181"/>
<polygon fill="#000000" stroke="#000000" points="3532.5001,-143.718 3536,-153.7181 3539.5001,-143.7181 3532.5001,-143.718"/>
</g>
<!-- MenuComponent  -->
<g id="node29" class="node">
<title>MenuComponent </title>
<polygon fill="#fb8072" stroke="#000000" points="3455.9926,-190 3338.0074,-190 3338.0074,-154 3455.9926,-154 3455.9926,-190"/>
<text text-anchor="middle" x="3397" y="-167.8" font-family="Times,serif" font-size="14.00" fill="#000000">MenuComponent </text>
</g>
<!-- SharedModule&#45;&gt;MenuComponent  -->
<g id="edge28" class="edge">
<title>SharedModule&#45;&gt;MenuComponent </title>
<path fill="none" stroke="#000000" stroke-dasharray="5,2" d="M3265.4037,-122.0098C3265.4037,-146.4207 3265.4037,-187 3265.4037,-187 3265.4037,-187 3328.1301,-187 3328.1301,-187"/>
<polygon fill="#000000" stroke="#000000" points="3328.1301,-190.5001 3338.1301,-187 3328.13,-183.5001 3328.1301,-190.5001"/>
</g>
<!-- BreadcrumbComponent -->
<g id="node22" class="node">
<title>BreadcrumbComponent</title>
<polygon fill="#ffffb3" stroke="#000000" points="4492.0253,-190 4341.9747,-190 4341.9747,-154 4492.0253,-154 4492.0253,-190"/>
<text text-anchor="middle" x="4417" y="-167.8" font-family="Times,serif" font-size="14.00" fill="#000000">BreadcrumbComponent</text>
</g>
<!-- BreadcrumbComponent&#45;&gt;SharedModule -->
<g id="edge21" class="edge">
<title>BreadcrumbComponent&#45;&gt;SharedModule</title>
<path fill="none" stroke="#000000" d="M4417,-153.6198C4417,-129.7215 4417,-91 4417,-91 4417,-91 3308.4415,-91 3308.4415,-91"/>
<polygon fill="#000000" stroke="#000000" points="3308.4415,-87.5001 3298.4415,-91 3308.4414,-94.5001 3308.4415,-87.5001"/>
</g>
<!-- FooterComponent -->
<g id="node23" class="node">
<title>FooterComponent</title>
<polygon fill="#ffffb3" stroke="#000000" points="4323.8809,-190 4206.1191,-190 4206.1191,-154 4323.8809,-154 4323.8809,-190"/>
<text text-anchor="middle" x="4265" y="-167.8" font-family="Times,serif" font-size="14.00" fill="#000000">FooterComponent</text>
</g>
<!-- FooterComponent&#45;&gt;SharedModule -->
<g id="edge22" class="edge">
<title>FooterComponent&#45;&gt;SharedModule</title>
<path fill="none" stroke="#000000" d="M4265,-153.7521C4265,-130.9821 4265,-95 4265,-95 4265,-95 3308.3471,-95 3308.3471,-95"/>
<polygon fill="#000000" stroke="#000000" points="3308.3472,-91.5001 3298.3471,-95 3308.3471,-98.5001 3308.3472,-91.5001"/>
</g>
<!-- HeaderComponent -->
<g id="node24" class="node">
<title>HeaderComponent</title>
<polygon fill="#ffffb3" stroke="#000000" points="4187.7437,-190 4066.2563,-190 4066.2563,-154 4187.7437,-154 4187.7437,-190"/>
<text text-anchor="middle" x="4127" y="-167.8" font-family="Times,serif" font-size="14.00" fill="#000000">HeaderComponent</text>
</g>
<!-- HeaderComponent&#45;&gt;SharedModule -->
<g id="edge23" class="edge">
<title>HeaderComponent&#45;&gt;SharedModule</title>
<path fill="none" stroke="#000000" d="M4127,-153.8314C4127,-132.502 4127,-100 4127,-100 4127,-100 3308.4031,-100 3308.4031,-100"/>
<polygon fill="#000000" stroke="#000000" points="3308.4032,-96.5001 3298.4031,-100 3308.4031,-103.5001 3308.4032,-96.5001"/>
</g>
<!-- MenuComponent -->
<g id="node25" class="node">
<title>MenuComponent</title>
<polygon fill="#ffffb3" stroke="#000000" points="4047.9916,-190 3934.0084,-190 3934.0084,-154 4047.9916,-154 4047.9916,-190"/>
<text text-anchor="middle" x="3991" y="-167.8" font-family="Times,serif" font-size="14.00" fill="#000000">MenuComponent</text>
</g>
<!-- MenuComponent&#45;&gt;SharedModule -->
<g id="edge24" class="edge">
<title>MenuComponent&#45;&gt;SharedModule</title>
<path fill="none" stroke="#000000" d="M3991,-153.7772C3991,-133.6348 3991,-104 3991,-104 3991,-104 3308.2593,-104 3308.2593,-104"/>
<polygon fill="#000000" stroke="#000000" points="3308.2594,-100.5001 3298.2593,-104 3308.2593,-107.5001 3308.2594,-100.5001"/>
</g>
</g>
</svg>
